<?xml version="1.0" encoding="UTF-8" standalone="no"?>
<!DOCTYPE svg PUBLIC "-//W3C//DTD SVG 1.1//EN" "http://www.w3.org/Graphics/SVG/1.1/DTD/svg11.dtd">
<!-- Created with Vectornator (http://vectornator.io/) -->
<svg stroke-miterlimit="10" style="fill-rule:nonzero;clip-rule:evenodd;stroke-linecap:round;stroke-linejoin:round;" version="1.1" viewBox="0 0 318.039 80.9242" xml:space="preserve" xmlns="http://www.w3.org/2000/svg" xmlns:xlink="http://www.w3.org/1999/xlink">
<defs/>
<g id="Layer-1">
<g opacity="1">
<path d="M6.373 65.6811L311.664 65.6811L311.664 15.2431L6.373 15.2431L6.373 65.6811ZM316.455 70.4711L1.58397 70.4711L1.58397 10.4531L316.455 10.4531L316.455 70.4711Z" fill="#0aa245" fill-rule="evenodd" opacity="1" stroke="none"/>
<path d="M19.0659 27.7218L19.6359 27.1518L41.3149 27.1518L41.8849 27.7218L41.1249 33.2368L40.5539 33.8068L26.6729 33.8068L26.6729 53.2038L26.1019 53.7738L19.6359 53.7738L19.0659 53.2038L19.0659 27.7218Z" fill="#ffffff" fill-rule="evenodd" opacity="1" stroke="none"/>
<path d="M48.7299 53.2037L48.7299 27.7217L49.3009 27.1517L70.9799 27.1517L71.5499 27.7217L70.7889 33.2367L70.2189 33.8067L56.3369 33.8067L56.3369 47.1187L70.2189 47.1187L70.7889 47.6887L71.5499 53.2037L70.9799 53.7737L49.3009 53.7737L48.7299 53.2037Z" fill="#ffffff" fill-rule="evenodd" opacity="1" stroke="none"/>
<path d="M95.6987 38.4093L96.6497 37.4583L96.6497 34.7583L95.6987 33.8063L86.0007 33.8063L86.0007 38.4093L95.6987 38.4093ZM78.3947 53.2033L78.3947 27.7213L78.9647 27.1513L100.453 27.1513L104.257 30.9543L104.257 37.9143L100.453 41.7933L100.453 42.0223L104.257 45.8633L104.257 53.2033L103.686 53.7743L97.2197 53.7743L96.6497 53.2033L96.6497 46.0153L95.6987 45.0643L86.0007 45.0643L86.0007 53.2033L85.4297 53.7743L78.9647 53.7743L78.3947 53.2033Z" fill="#ffffff" fill-rule="evenodd" opacity="1" stroke="none"/>
<path d="M128.405 38.4093L129.356 37.4583L129.356 34.7583L128.405 33.8063L118.707 33.8063L118.707 38.4093L128.405 38.4093ZM111.1 53.2033L111.1 27.7213L111.67 27.1513L133.158 27.1513L136.962 30.9543L136.962 37.9143L133.158 41.7933L133.158 42.0223L136.962 45.8633L136.962 53.2033L136.391 53.7743L129.926 53.7743L129.356 53.2033L129.356 46.0153L128.405 45.0643L118.707 45.0643L118.707 53.2033L118.136 53.7743L111.67 53.7743L111.1 53.2033Z" fill="#ffffff" fill-rule="evenodd" opacity="1" stroke="none"/>
<path d="M143.807 53.2037L143.807 27.7217L144.377 27.1517L166.055 27.1517L166.626 27.7217L165.865 33.2367L165.295 33.8067L151.413 33.8067L151.413 47.1187L165.295 47.1187L165.865 47.6887L166.626 53.2037L166.055 53.7737L144.377 53.7737L143.807 53.2037Z" fill="#ffffff" fill-rule="evenodd" opacity="1" stroke="none"/>
<path d="M173.47 53.2037L173.47 27.7217L174.04 27.1517L179.822 27.1517L180.468 27.6077L193.247 41.8707L193.247 27.7217L193.817 27.1517L200.283 27.1517L200.854 27.7217L200.854 53.2037L200.283 53.7737L194.692 53.7737L193.817 53.3177L181.076 39.0557L181.076 53.2037L180.506 53.7737" fill="#ffffff" fill-rule="evenodd" opacity="1" stroke="none"/>
<path d="M216.255 47.4986L225.003 47.4986L225.954 46.5476L225.954 34.3776L225.003 33.4266L216.255 33.4266L215.304 34.3776L215.304 46.5476L216.255 47.4986ZM207.697 50.3516L207.697 30.5746L211.501 26.7706L229.756 26.7706L233.56 30.5746L233.56 50.3516L229.756 54.1546L211.501 54.1546L207.697 50.3516Z" fill="#ffffff" fill-rule="evenodd" opacity="1" stroke="none"/>
<path d="M281.667 47.4986L290.415 47.4986L291.365 46.5476L291.365 34.3776L290.415 33.4266L281.667 33.4266L280.716 34.3776L280.716 46.5476L281.667 47.4986ZM273.11 50.3516L273.11 30.5746L276.914 26.7706L295.168 26.7706L298.973 30.5746L298.973 50.3516L295.168 54.1546L276.914 54.1546L273.11 50.3516Z" fill="#ffffff" fill-rule="evenodd" opacity="1" stroke="none"/>
<path d="M258.66 35.8609L258.66 27.7219L259.23 27.1519L265.696 27.1519L266.266 27.7219L266.266 38.7139L265.962 39.4359L256.074 53.4699L255.351 53.7739L251.319 53.7739L250.597 53.4699L240.708 39.4359L240.404 38.7139L240.404 27.7219L240.975 27.1519L247.44 27.1519L248.011 27.7219L248.011 35.8609L253.183 45.5969L258.66 35.8609Z" fill="#ffffff" fill-rule="evenodd" opacity="1" stroke="none"/>
<path d="M161.951 37.65L161.396 37.095L146.626 37.095L146.071 37.65L146.071 43.275L146.626 43.83L161.396 43.83L161.951 43.275L161.951 37.65Z" fill="#ffffff" fill-rule="evenodd" opacity="1" stroke="none"/>
<path d="M66.875 37.65L66.32 37.095L51.318 37.095L50.763 37.65L50.763 43.275L51.318 43.83L66.32 43.83L66.875 43.275L66.875 37.65Z" fill="#ffffff" fill-rule="evenodd" opacity="1" stroke="none"/>
<path d="M37.2104 37.65L36.6554 37.095L19.0654 37.095L19.0654 43.83L36.6554 43.83L37.2104 43.275L37.2104 37.65Z" fill="#0aa245" fill-rule="evenodd" opacity="1" stroke="none"/>
<path d="M193.247 41.8648L193.247 41.8698L180.469 27.6078L179.822 27.1518L174.041 27.1518L173.471 27.7218L173.471 30.5078L193.818 53.3178L194.693 53.7738L200.284 53.7738L200.854 53.2038L200.854 50.3538L193.247 41.8648Z" fill="#0aa245" fill-rule="evenodd" opacity="1" stroke="none"/>
</g>
</g>
</svg>
